<svg enable-background="new 0 0 225.938 407.407" height="407.407" viewBox="0 0 225.938 407.407" width="225.938" xmlns="http://www.w3.org/2000/svg" xmlns:xlink="http://www.w3.org/1999/xlink"><radialGradient id="a" cx="86.6299" cy="167.0693" gradientUnits="userSpaceOnUse" r="54.7155"><stop offset="0" stop-color="#fff"/><stop offset=".0604" stop-color="#fbc8b4"/><stop offset=".0712" stop-color="#fbc3b0"/><stop offset=".1829" stop-color="#f7978b"/><stop offset=".2995" stop-color="#f4716b"/><stop offset=".4199" stop-color="#f15251"/><stop offset=".5453" stop-color="#ef3a3d"/><stop offset=".6778" stop-color="#ee292f"/><stop offset=".822" stop-color="#ed1f27"/><stop offset="1" stop-color="#ed1c24"/></radialGradient><g clip-rule="evenodd" fill-rule="evenodd"><path d="m48.859 43.518c8.424 17.64 2.736 140.832-7.128 184.032-9.864 43.272-19.728 98.28-22.032 144.576-1.008 19.728 2.016 27.504 14.904 27.504 22.752 0 51.624-47.952 87.84-46.872 36.288 1.08 47.808 55.008 64.8 54.648s30.672-6.264 30.816-58.752c.504-156.673-130.824-283.681-169.2-305.136z"/><path d="m162.763 168.726c7.992 13.464 28.368 3.096 29.232-12.096s-1.368-34.344-11.232-35.064-16.92-10.584-26.784-11.304-20.448 9.144-25.056-3.96 12.384-18.648 25.056-20.736c-11.304-11.304-17.928-23.832-22.896-36.864s-8.64-24.984 5.256-30.096 12.744 21.168 28.656 33.192c-4.68-17.712-6.408-25.056-6.048-35.352s-.36-18.144 14.256-16.128 8.28 32.4 19.656 44.784c3.456-11.736 5.544-26.64 13.896-32.76s27.36-6.264 15.264 18.864 3.528 38.736-.144 58.536-15.048 16.2-19.944 28.944 2.88 41.76-6.336 54.792-10.872 33.048-4.896 49.032c-18.36-17.136-27.936-53.784-27.936-53.784z"/><path d="m48.355 185.646c-7.416 50.832-33.192 56.88-34.488 77.976s6.84 23.112 6.336 42.624-17.856 27.432-19.944 38.016 8.928 13.968 15.336 13.968 12.816-28.08 15.408-45.936-8.496-28.368-8.496-40.608 16.056-34.632 13.104-14.976c13.32-21.024 19.657-47.809 12.744-71.064z"/><path d="m58.292 205.013c-5.616 27.504-40.68 181.08-22.824 183.024s43.272-47.52 84.888-47.16c41.688.36 58.104 55.44 68.256 55.08s16.848 3.6 17.928-58.464-36.792-141.336-59.184-176.256c-30.385 1.944-63.073 26.281-89.064 43.776z" fill="#fff"/></g><path d="m139.162 172.181c-1.95-18.251-19.12-25.421-35.661-23.168-13.889 1.893-32.403 13.613-34.107 28.64-1.921 16.937 11.402 32.522 28.361 33.203 15.03.604 31.176-6.668 37.93-20.79 2.73-5.704 3.797-11.578 3.477-17.885" fill="none"/><path d="m147.082 171.533c-1.662-17.195-14.407-27.988-30.895-30.627-15.924-2.549-33.26 4.998-44.408 16.146-12.538 12.538-13.039 29.978-4.26 44.833 8.661 14.657 27.847 19.501 43.563 15.835 21.506-5.015 37.398-23.824 36-46.187"/><path d="m139.162 177.941c-1.493 15.627-13.947 28.182-28.944 31.824-15.87 3.854-33.393-2.257-39.096-18.576-2.912-8.332-2.37-16.879 2.637-24.198 4.223-6.171 11.033-11 17.779-14.066 13.924-6.326 33.832-7.029 43.531 7.077 3.675 5.346 4.318 11.639 4.093 17.939" fill="url(#a)" stroke="#000"/></svg>