<svg height="240pt" width="240pt" xmlns="http://www.w3.org/2000/svg"><g transform="matrix(3.031339 0 0 2.932114 12.5 12.4941)"><circle cx="9.124" cy="46.903999" fill="#ff6309" r="9.124"/><circle cx="74.547997" cy="84.667" fill="#ffb515" r="9.124"/><path d="m52.739 24.327c11.361 0 20.787 8.436 22.348 19.373h15.632c-.71-8.594-4.273-16.604-10.23-22.921-3.815 1.943-8.506 1.98-12.491-.32-3.988-2.303-6.302-6.387-6.524-10.667-2.831-.66-5.756-1.002-8.735-1.002-5.704 0-11.216 1.245-16.229 3.606l7.826 13.555c2.599-1.046 5.435-1.624 8.403-1.624z" fill="#ff6309"/><path d="m75.088 50.098c-1.557 10.941-10.985 19.382-22.349 19.382-2.97 0-5.807-.578-8.406-1.626l-7.827 13.556c5.012 2.362 10.526 3.608 16.232 3.608 2.981 0 5.91-.344 8.742-1.004.218-4.285 2.533-8.376 6.524-10.68 3.986-2.302 8.679-2.265 12.495-.318 5.952-6.318 9.511-14.327 10.219-22.918z" fill="#c90016"/><path d="m30.163 46.904c0-7.193 3.381-13.61 8.636-17.747l-7.824-13.553c-1.835 1.282-3.571 2.733-5.188 4.349-4.528 4.528-7.775 9.995-9.562 15.962 3.6 2.332 5.984 6.38 5.984 10.989 0 4.608-2.384 8.657-5.984 10.988 1.787 5.967 5.034 11.434 9.562 15.962 1.616 1.616 3.35 3.065 5.184 4.348l7.825-13.554c-5.254-4.137-8.633-10.554-8.633-17.744z" fill="#ffb515"/><circle cx="74.540001" cy="9.126" fill="#c90016" r="9.124"/></g></svg>